<svg width="50" height="50" viewBox="0 0 50 50" fill="none" xmlns="http://www.w3.org/2000/svg">
<path d="M11.0418 44.2709V30.2084H10.0001C9.55741 30.2084 9.1864 30.0586 8.8871 29.7589C8.58745 29.4597 8.43762 29.0886 8.43762 28.6459V18.3334C8.43762 17.3264 8.81088 16.4498 9.55741 15.7032C10.3039 14.9566 11.1762 14.5834 12.1741 14.5834H17.6178C18.6157 14.5834 19.4879 14.9566 20.2345 15.7032C20.9811 16.4498 21.3543 17.3264 21.3543 18.3334V28.6459C21.3543 29.0886 21.2046 29.4597 20.9053 29.7589C20.6056 30.0586 20.2345 30.2084 19.7918 30.2084H18.7501V44.2709C18.7501 44.7136 18.6004 45.0847 18.3012 45.3839C18.0015 45.6836 17.6303 45.8334 17.1876 45.8334H12.6043C12.1616 45.8334 11.7905 45.6836 11.4913 45.3839C11.1916 45.0847 11.0418 44.7136 11.0418 44.2709ZM14.9001 11.7709C13.8556 11.7709 12.9602 11.399 12.2137 10.6553C11.4671 9.91154 11.0939 9.01745 11.0939 7.973C11.0939 6.92855 11.4657 6.03307 12.2095 5.28654C12.9532 4.54001 13.8473 4.16675 14.8918 4.16675C15.9363 4.16675 16.8317 4.53862 17.5782 5.28237C18.3248 6.02612 18.698 6.92022 18.698 7.96466C18.698 9.00911 18.3262 9.90459 17.5824 10.6511C16.8387 11.3977 15.9446 11.7709 14.9001 11.7709ZM32.8126 44.2709V33.3334H29.4272C28.922 33.3334 28.518 33.1251 28.2152 32.7084C27.9121 32.2917 27.83 31.8404 27.9689 31.3542L31.8751 17.1355C32.1259 16.3164 32.5878 15.6862 33.2611 15.2449C33.9343 14.8039 34.7223 14.5834 35.6251 14.5834C36.5279 14.5834 37.316 14.8039 37.9892 15.2449C38.6624 15.6862 39.1244 16.3164 39.3751 17.1355L43.2814 31.3542C43.4202 31.8404 43.3381 32.2917 43.035 32.7084C42.7322 33.1251 42.3282 33.3334 41.823 33.3334H38.4376V44.2709C38.4376 44.7136 38.2879 45.0847 37.9887 45.3839C37.689 45.6836 37.3178 45.8334 36.8751 45.8334H34.3751C33.9324 45.8334 33.5614 45.6836 33.2621 45.3839C32.9624 45.0847 32.8126 44.7136 32.8126 44.2709ZM35.6293 11.7709C34.5848 11.7709 33.6894 11.399 32.9428 10.6553C32.1963 9.91154 31.823 9.01745 31.823 7.973C31.823 6.92855 32.1949 6.03307 32.9387 5.28654C33.6824 4.54001 34.5765 4.16675 35.621 4.16675C36.6654 4.16675 37.5609 4.53862 38.3074 5.28237C39.054 6.02612 39.4272 6.92022 39.4272 7.96466C39.4272 9.00911 39.0553 9.90459 38.3116 10.6511C37.5678 11.3977 36.6738 11.7709 35.6293 11.7709Z" fill="black"/>
</svg>
